<?xml version="1.0" encoding="iso-8859-1"?>
<!-- Generator: Adobe Illustrator 18.0.0, SVG Export Plug-In . SVG Version: 6.00 Build 0)  -->
<!DOCTYPE svg PUBLIC "-//W3C//DTD SVG 1.1//EN" "http://www.w3.org/Graphics/SVG/1.1/DTD/svg11.dtd">
<svg xmlns="http://www.w3.org/2000/svg" xmlns:xlink="http://www.w3.org/1999/xlink" version="1.1" id="Capa_1" x="0px" y="0px" viewBox="0 0 198.564 198.564" style="enable-background:new 0 0 198.564 198.564;" xml:space="preserve" width="512px" height="512px">
<path d="M190.179,189.43c-0.756,0-1.514-0.171-2.212-0.516l-41.407-20.425c-1.646-0.812-2.716-2.461-2.784-4.296  c-0.069-1.834,0.872-3.56,2.453-4.493l6.301-3.721l-14.848-14.392c-0.665,0.191-1.307,0.359-1.942,0.51l-37.598,8.915  c-11.801,2.796-24.271,1.342-35.109-4.101l-34.531-17.338c-10.84-5.443-19.456-14.573-24.261-25.709  c-6.067-14.062-5.605-29.975,1.267-43.661c6.871-13.686,19.358-23.562,34.26-27.095l95.197-22.572  c14.898-3.531,30.493-0.315,42.778,8.829c12.284,9.144,19.842,23.156,20.733,38.444c0.706,12.108-2.894,24.135-10.135,33.865  l-14.233,19.123l9.021,27.11l7.893-4.661c1.601-0.946,3.594-0.925,5.177,0.055c1.58,0.979,2.487,2.756,2.354,4.61l-3.385,46.879  c-0.12,1.66-1.058,3.151-2.502,3.979C191.896,189.209,191.038,189.43,190.179,189.43z" fill="#FFFFFF"/>
</svg>
